# xmcd
#
# Track frame offsets: 
#        150
#        4329
#        14377
#        24688
#        34004
#        45537
#        56640
#        69476
#        80785
#        91027
#        103233
#        113692
#        126659
#        137468
#        153531
#        163997
#        176459
#        187102
#        201160
#
# Disc length: 2844 seconds
#
# Revision: 0
# Processed by: cddbd v1.5.2PL0 Copyright (c) Steve Scherf et al.
# Submitted via: ExactAudioCopy v1.0b3
#
DISCID=0a0b1a13
DTITLE=Len Barry - The Fabulous Len Barry - The Best Of Philly Soul Vo
DTITLE=lume 1
DYEAR=1900
DGENRE=Soul
TTITLE0=Introduction by Len Barry
TTITLE1=Do It Again
TTITLE2=I'll Always Need You
TTITLE3=I'm In Love
TTITLE4=Put Out The Fire
TTITLE5=Lazy Susan
TTITLE6=Keem-O-Sabe
TTITLE7=Love, Love, Love
TTITLE8=Girl, You're Too Young
TTITLE9=Bob, Carol, Ted and Alice
TTITLE10=Spread It On Like Butter
TTITLE11=Happy Days
TTITLE12=Christopher Columbus
TTITLE13=Now I'm Alone
TTITLE14=You're My Picasso Baby
TTITLE15=This Old World
TTITLE16=Funky Night
TTITLE17=In My Present State Of Mind
TTITLE18=Wouldn't It Be Beautiful
EXTD=
EXTT0=
EXTT1=
EXTT2=
EXTT3=
EXTT4=
EXTT5=
EXTT6=
EXTT7=
EXTT8=
EXTT9=
EXTT10=
EXTT11=
EXTT12=
EXTT13=
EXTT14=
EXTT15=
EXTT16=
EXTT17=
EXTT18=
PLAYORDER=
